<svg width="284" height="403" viewBox="0 0 284 403" fill="none" xmlns="http://www.w3.org/2000/svg">
<rect x="0.5" y="0.5" width="283" height="360" rx="24.5" fill="white" stroke="black"/>
<path d="M112.793 403L98.4752 388.682L112.793 374.364L115.254 376.793L105.123 386.924H131.362V390.44H105.123L115.254 400.539L112.793 403Z" fill="black"/>
<path d="M171.227 403L168.766 400.571L178.897 390.44H152.658V386.924H178.897L168.766 376.825L171.227 374.364L185.545 388.682L171.227 403Z" fill="black"/>
<path d="M73.3622 146.909C73.2599 146.045 72.8452 145.375 72.1179 144.898C71.3906 144.42 70.4986 144.182 69.4418 144.182C68.669 144.182 67.9929 144.307 67.4134 144.557C66.8395 144.807 66.3906 145.151 66.0668 145.588C65.7486 146.026 65.5895 146.523 65.5895 147.08C65.5895 147.545 65.7003 147.946 65.9219 148.281C66.1491 148.611 66.4389 148.886 66.7912 149.108C67.1435 149.324 67.5128 149.503 67.8991 149.645C68.2855 149.781 68.6406 149.892 68.9645 149.977L70.7372 150.455C71.1918 150.574 71.6974 150.739 72.2543 150.949C72.8168 151.159 73.3537 151.446 73.8651 151.81C74.3821 152.168 74.8082 152.628 75.1435 153.19C75.4787 153.753 75.6463 154.443 75.6463 155.261C75.6463 156.205 75.3991 157.057 74.9048 157.818C74.4162 158.58 73.7003 159.185 72.7571 159.634C71.8196 160.082 70.6804 160.307 69.3395 160.307C68.0895 160.307 67.0071 160.105 66.0923 159.702C65.1832 159.298 64.4673 158.736 63.9446 158.014C63.4276 157.293 63.1349 156.455 63.0668 155.5H65.2486C65.3054 156.159 65.527 156.705 65.9134 157.136C66.3054 157.562 66.7997 157.881 67.3963 158.091C67.9986 158.295 68.6463 158.398 69.3395 158.398C70.1463 158.398 70.8707 158.267 71.5128 158.006C72.1548 157.739 72.6634 157.369 73.0384 156.898C73.4134 156.42 73.6009 155.864 73.6009 155.227C73.6009 154.648 73.4389 154.176 73.1151 153.812C72.7912 153.449 72.3651 153.153 71.8366 152.926C71.3082 152.699 70.7372 152.5 70.1236 152.33L67.9759 151.716C66.6122 151.324 65.5327 150.764 64.7372 150.037C63.9418 149.31 63.544 148.358 63.544 147.182C63.544 146.205 63.8082 145.352 64.3366 144.625C64.8707 143.892 65.5866 143.324 66.4844 142.92C67.3878 142.511 68.3963 142.307 69.5099 142.307C70.6349 142.307 71.6349 142.509 72.5099 142.912C73.3849 143.31 74.0781 143.855 74.5895 144.548C75.1065 145.241 75.3793 146.028 75.4077 146.909H73.3622ZM84.5419 146.909V148.614H77.7578V146.909H84.5419ZM79.7351 143.773H81.7464V156.25C81.7464 156.818 81.8288 157.244 81.9936 157.528C82.1641 157.807 82.38 157.994 82.6413 158.091C82.9084 158.182 83.1896 158.227 83.4851 158.227C83.7067 158.227 83.8885 158.216 84.0305 158.193C84.1726 158.165 84.2862 158.142 84.3714 158.125L84.7805 159.932C84.6442 159.983 84.4538 160.034 84.2095 160.085C83.9652 160.142 83.6555 160.17 83.2805 160.17C82.7124 160.17 82.1555 160.048 81.6101 159.804C81.0703 159.56 80.6214 159.188 80.2635 158.688C79.9112 158.188 79.7351 157.557 79.7351 156.795V143.773ZM91.4197 160.307C90.5902 160.307 89.8374 160.151 89.1612 159.838C88.4851 159.52 87.9482 159.062 87.5504 158.466C87.1527 157.864 86.9538 157.136 86.9538 156.284C86.9538 155.534 87.1016 154.926 87.397 154.46C87.6925 153.989 88.0874 153.619 88.5817 153.352C89.076 153.085 89.6214 152.886 90.218 152.756C90.8203 152.619 91.4254 152.511 92.0334 152.432C92.8288 152.33 93.4737 152.253 93.968 152.202C94.468 152.145 94.8317 152.051 95.0589 151.92C95.2919 151.79 95.4084 151.562 95.4084 151.239V151.17C95.4084 150.33 95.1783 149.676 94.718 149.21C94.2635 148.744 93.5732 148.511 92.647 148.511C91.6868 148.511 90.9339 148.722 90.3885 149.142C89.843 149.562 89.4595 150.011 89.2379 150.489L87.3288 149.807C87.6697 149.011 88.1243 148.392 88.6925 147.949C89.2663 147.5 89.8913 147.187 90.5675 147.011C91.2493 146.83 91.9197 146.739 92.5788 146.739C92.9993 146.739 93.4822 146.79 94.0277 146.892C94.5788 146.989 95.1101 147.19 95.6214 147.497C96.1385 147.804 96.5675 148.267 96.9084 148.886C97.2493 149.506 97.4197 150.335 97.4197 151.375V160H95.4084V158.227H95.3061C95.1697 158.511 94.9425 158.815 94.6243 159.139C94.3061 159.463 93.8828 159.739 93.3544 159.966C92.826 160.193 92.1811 160.307 91.4197 160.307ZM91.7266 158.5C92.522 158.5 93.1925 158.344 93.7379 158.031C94.2891 157.719 94.7038 157.315 94.9822 156.821C95.2663 156.327 95.4084 155.807 95.4084 155.261V153.42C95.3232 153.523 95.1357 153.616 94.8459 153.702C94.5618 153.781 94.2322 153.852 93.8572 153.915C93.4879 153.972 93.1271 154.023 92.7749 154.068C92.4283 154.108 92.147 154.142 91.9311 154.17C91.4084 154.239 90.9197 154.349 90.4652 154.503C90.0163 154.651 89.6527 154.875 89.3743 155.176C89.1016 155.472 88.9652 155.875 88.9652 156.386C88.9652 157.085 89.2237 157.614 89.7408 157.972C90.2635 158.324 90.9254 158.5 91.7266 158.5ZM101.091 160V146.909H103.034V148.886H103.17C103.409 148.239 103.841 147.713 104.466 147.31C105.091 146.906 105.795 146.705 106.58 146.705C106.727 146.705 106.912 146.707 107.134 146.713C107.355 146.719 107.523 146.727 107.636 146.739V148.784C107.568 148.767 107.412 148.741 107.168 148.707C106.929 148.668 106.676 148.648 106.409 148.648C105.773 148.648 105.205 148.781 104.705 149.048C104.21 149.31 103.818 149.673 103.528 150.139C103.244 150.599 103.102 151.125 103.102 151.716V160H101.091ZM116.534 146.909V148.614H109.75V146.909H116.534ZM111.727 143.773H113.739V156.25C113.739 156.818 113.821 157.244 113.986 157.528C114.156 157.807 114.372 157.994 114.634 158.091C114.901 158.182 115.182 158.227 115.477 158.227C115.699 158.227 115.881 158.216 116.023 158.193C116.165 158.165 116.278 158.142 116.364 158.125L116.773 159.932C116.636 159.983 116.446 160.034 116.202 160.085C115.957 160.142 115.648 160.17 115.273 160.17C114.705 160.17 114.148 160.048 113.602 159.804C113.063 159.56 112.614 159.188 112.256 158.688C111.903 158.188 111.727 157.557 111.727 156.795V143.773ZM135.582 149.841L133.776 150.352C133.662 150.051 133.494 149.759 133.273 149.474C133.057 149.185 132.761 148.946 132.386 148.759C132.011 148.571 131.531 148.477 130.946 148.477C130.145 148.477 129.477 148.662 128.943 149.031C128.415 149.395 128.151 149.858 128.151 150.42C128.151 150.92 128.332 151.315 128.696 151.605C129.06 151.895 129.628 152.136 130.401 152.33L132.344 152.807C133.514 153.091 134.386 153.526 134.96 154.111C135.534 154.69 135.821 155.437 135.821 156.352C135.821 157.102 135.605 157.773 135.173 158.364C134.747 158.955 134.151 159.42 133.384 159.761C132.616 160.102 131.724 160.273 130.707 160.273C129.372 160.273 128.267 159.983 127.392 159.403C126.517 158.824 125.963 157.977 125.73 156.864L127.639 156.386C127.821 157.091 128.165 157.619 128.67 157.972C129.182 158.324 129.849 158.5 130.673 158.5C131.611 158.5 132.355 158.301 132.906 157.903C133.463 157.5 133.741 157.017 133.741 156.455C133.741 156 133.582 155.619 133.264 155.312C132.946 155 132.457 154.767 131.798 154.614L129.616 154.102C128.418 153.818 127.537 153.378 126.974 152.781C126.418 152.179 126.139 151.426 126.139 150.523C126.139 149.784 126.347 149.131 126.761 148.562C127.182 147.994 127.753 147.548 128.474 147.224C129.202 146.901 130.026 146.739 130.946 146.739C132.241 146.739 133.259 147.023 133.997 147.591C134.741 148.159 135.27 148.909 135.582 149.841ZM144.542 146.909V148.614H137.758V146.909H144.542ZM139.735 143.773H141.746V156.25C141.746 156.818 141.829 157.244 141.994 157.528C142.164 157.807 142.38 157.994 142.641 158.091C142.908 158.182 143.19 158.227 143.485 158.227C143.707 158.227 143.888 158.216 144.031 158.193C144.173 158.165 144.286 158.142 144.371 158.125L144.781 159.932C144.644 159.983 144.454 160.034 144.21 160.085C143.965 160.142 143.656 160.17 143.281 160.17C142.712 160.17 142.156 160.048 141.61 159.804C141.07 159.56 140.621 159.188 140.263 158.688C139.911 158.188 139.735 157.557 139.735 156.795V143.773ZM155.817 154.648V146.909H157.829V160H155.817V157.784H155.681C155.374 158.449 154.897 159.014 154.249 159.48C153.602 159.94 152.783 160.17 151.795 160.17C150.977 160.17 150.249 159.991 149.613 159.634C148.977 159.27 148.477 158.724 148.113 157.997C147.749 157.264 147.567 156.341 147.567 155.227V146.909H149.579V155.091C149.579 156.045 149.846 156.807 150.38 157.375C150.92 157.943 151.607 158.227 152.442 158.227C152.942 158.227 153.451 158.099 153.968 157.844C154.491 157.588 154.928 157.196 155.281 156.668C155.638 156.139 155.817 155.466 155.817 154.648ZM166.456 160.273C165.365 160.273 164.402 159.997 163.567 159.446C162.732 158.889 162.078 158.105 161.607 157.094C161.135 156.077 160.899 154.875 160.899 153.489C160.899 152.114 161.135 150.92 161.607 149.909C162.078 148.898 162.734 148.116 163.575 147.565C164.416 147.014 165.388 146.739 166.49 146.739C167.342 146.739 168.016 146.881 168.51 147.165C169.01 147.443 169.391 147.761 169.652 148.119C169.919 148.472 170.126 148.761 170.274 148.989H170.445V142.545H172.456V160H170.513V157.989H170.274C170.126 158.227 169.916 158.528 169.643 158.892C169.371 159.25 168.982 159.571 168.476 159.855C167.97 160.134 167.297 160.273 166.456 160.273ZM166.729 158.466C167.536 158.466 168.217 158.256 168.774 157.835C169.331 157.409 169.754 156.821 170.044 156.071C170.334 155.315 170.479 154.443 170.479 153.455C170.479 152.477 170.337 151.622 170.053 150.889C169.768 150.151 169.348 149.577 168.791 149.168C168.234 148.753 167.547 148.545 166.729 148.545C165.876 148.545 165.166 148.764 164.598 149.202C164.036 149.634 163.612 150.222 163.328 150.966C163.05 151.705 162.911 152.534 162.911 153.455C162.911 154.386 163.053 155.233 163.337 155.994C163.626 156.75 164.053 157.352 164.615 157.801C165.183 158.244 165.888 158.466 166.729 158.466ZM177.714 164.909C177.374 164.909 177.07 164.881 176.803 164.824C176.536 164.773 176.351 164.722 176.249 164.67L176.76 162.898C177.249 163.023 177.68 163.068 178.055 163.034C178.43 163 178.763 162.832 179.053 162.531C179.348 162.236 179.618 161.756 179.862 161.091L180.237 160.068L175.396 146.909H177.578L181.192 157.341H181.328L184.942 146.909H187.124L181.567 161.909C181.317 162.585 181.007 163.145 180.638 163.588C180.268 164.037 179.839 164.369 179.351 164.585C178.868 164.801 178.322 164.909 177.714 164.909ZM189.778 160V146.909H191.79V160H189.778ZM190.801 144.727C190.409 144.727 190.071 144.594 189.787 144.327C189.509 144.06 189.369 143.739 189.369 143.364C189.369 142.989 189.509 142.668 189.787 142.401C190.071 142.134 190.409 142 190.801 142C191.193 142 191.528 142.134 191.807 142.401C192.091 142.668 192.233 142.989 192.233 143.364C192.233 143.739 192.091 144.06 191.807 144.327C191.528 144.594 191.193 144.727 190.801 144.727ZM197.485 152.125V160H195.474V146.909H197.417V148.955H197.587C197.894 148.29 198.36 147.756 198.985 147.352C199.61 146.943 200.417 146.739 201.406 146.739C202.292 146.739 203.067 146.92 203.732 147.284C204.397 147.642 204.914 148.188 205.283 148.92C205.653 149.648 205.837 150.568 205.837 151.682V160H203.826V151.818C203.826 150.79 203.559 149.989 203.025 149.415C202.491 148.835 201.758 148.545 200.826 148.545C200.184 148.545 199.61 148.685 199.104 148.963C198.604 149.241 198.21 149.648 197.92 150.182C197.63 150.716 197.485 151.364 197.485 152.125ZM214.797 165.182C213.825 165.182 212.99 165.057 212.291 164.807C211.592 164.562 211.01 164.239 210.544 163.835C210.084 163.438 209.717 163.011 209.445 162.557L211.047 161.432C211.229 161.67 211.459 161.943 211.737 162.25C212.016 162.562 212.396 162.832 212.879 163.06C213.368 163.293 214.007 163.409 214.797 163.409C215.854 163.409 216.726 163.153 217.413 162.642C218.101 162.131 218.445 161.33 218.445 160.239V157.58H218.274C218.126 157.818 217.916 158.114 217.643 158.466C217.376 158.812 216.99 159.122 216.484 159.395C215.984 159.662 215.308 159.795 214.456 159.795C213.399 159.795 212.45 159.545 211.609 159.045C210.774 158.545 210.112 157.818 209.624 156.864C209.141 155.909 208.899 154.75 208.899 153.386C208.899 152.045 209.135 150.878 209.607 149.884C210.078 148.884 210.734 148.111 211.575 147.565C212.416 147.014 213.388 146.739 214.49 146.739C215.342 146.739 216.018 146.881 216.518 147.165C217.024 147.443 217.411 147.761 217.678 148.119C217.95 148.472 218.161 148.761 218.308 148.989H218.513V146.909H220.456V160.375C220.456 161.5 220.2 162.415 219.689 163.119C219.183 163.83 218.501 164.349 217.643 164.679C216.791 165.014 215.842 165.182 214.797 165.182ZM214.729 157.989C215.536 157.989 216.217 157.804 216.774 157.435C217.331 157.065 217.754 156.534 218.044 155.841C218.334 155.148 218.479 154.318 218.479 153.352C218.479 152.409 218.337 151.577 218.053 150.855C217.768 150.134 217.348 149.568 216.791 149.159C216.234 148.75 215.547 148.545 214.729 148.545C213.876 148.545 213.166 148.761 212.598 149.193C212.036 149.625 211.612 150.205 211.328 150.932C211.05 151.659 210.911 152.466 210.911 153.352C210.911 154.261 211.053 155.065 211.337 155.764C211.626 156.457 212.053 157.003 212.615 157.401C213.183 157.793 213.888 157.989 214.729 157.989ZM47.6918 178.841L45.8849 179.352C45.7713 179.051 45.6037 178.759 45.3821 178.474C45.1662 178.185 44.8707 177.946 44.4957 177.759C44.1207 177.571 43.6406 177.477 43.0554 177.477C42.2543 177.477 41.5866 177.662 41.0526 178.031C40.5241 178.395 40.2599 178.858 40.2599 179.42C40.2599 179.92 40.4418 180.315 40.8054 180.605C41.169 180.895 41.7372 181.136 42.5099 181.33L44.4531 181.807C45.6236 182.091 46.4957 182.526 47.0696 183.111C47.6435 183.69 47.9304 184.437 47.9304 185.352C47.9304 186.102 47.7145 186.773 47.2827 187.364C46.8565 187.955 46.2599 188.42 45.4929 188.761C44.7259 189.102 43.8338 189.273 42.8168 189.273C41.4815 189.273 40.3764 188.983 39.5014 188.403C38.6264 187.824 38.0724 186.977 37.8395 185.864L39.7486 185.386C39.9304 186.091 40.2741 186.619 40.7798 186.972C41.2912 187.324 41.9588 187.5 42.7827 187.5C43.7202 187.5 44.4645 187.301 45.0156 186.903C45.5724 186.5 45.8509 186.017 45.8509 185.455C45.8509 185 45.6918 184.619 45.3736 184.312C45.0554 184 44.5668 183.767 43.9077 183.614L41.7259 183.102C40.527 182.818 39.6463 182.378 39.0838 181.781C38.527 181.179 38.2486 180.426 38.2486 179.523C38.2486 178.784 38.456 178.131 38.8707 177.562C39.2912 176.994 39.8622 176.548 40.5838 176.224C41.3111 175.901 42.1349 175.739 43.0554 175.739C44.3509 175.739 45.3679 176.023 46.1065 176.591C46.8509 177.159 47.3793 177.909 47.6918 178.841ZM50.9581 189V175.909H52.9013V177.955H53.0717C53.3445 177.256 53.7848 176.713 54.3928 176.327C55.0007 175.935 55.7308 175.739 56.5831 175.739C57.4467 175.739 58.1655 175.935 58.7393 176.327C59.3189 176.713 59.7706 177.256 60.0945 177.955H60.2308C60.5661 177.278 61.0689 176.741 61.7393 176.344C62.4098 175.94 63.2138 175.739 64.1513 175.739C65.3217 175.739 66.2791 176.105 67.0234 176.838C67.7678 177.565 68.1399 178.699 68.1399 180.239V189H66.1286V180.239C66.1286 179.273 65.8643 178.582 65.3359 178.168C64.8075 177.753 64.1854 177.545 63.4695 177.545C62.549 177.545 61.8359 177.824 61.3303 178.381C60.8246 178.932 60.5717 179.631 60.5717 180.477V189H58.5263V180.034C58.5263 179.29 58.2848 178.69 57.8018 178.236C57.3189 177.776 56.6967 177.545 55.9354 177.545C55.4126 177.545 54.924 177.685 54.4695 177.963C54.0206 178.241 53.657 178.628 53.3786 179.122C53.1058 179.611 52.9695 180.176 52.9695 180.818V189H50.9581ZM75.6697 189.307C74.8402 189.307 74.0874 189.151 73.4112 188.838C72.7351 188.52 72.1982 188.062 71.8004 187.466C71.4027 186.864 71.2038 186.136 71.2038 185.284C71.2038 184.534 71.3516 183.926 71.647 183.46C71.9425 182.989 72.3374 182.619 72.8317 182.352C73.326 182.085 73.8714 181.886 74.468 181.756C75.0703 181.619 75.6754 181.511 76.2834 181.432C77.0788 181.33 77.7237 181.253 78.218 181.202C78.718 181.145 79.0817 181.051 79.3089 180.92C79.5419 180.79 79.6584 180.562 79.6584 180.239V180.17C79.6584 179.33 79.4283 178.676 78.968 178.21C78.5135 177.744 77.8232 177.511 76.897 177.511C75.9368 177.511 75.1839 177.722 74.6385 178.142C74.093 178.562 73.7095 179.011 73.4879 179.489L71.5788 178.807C71.9197 178.011 72.3743 177.392 72.9425 176.949C73.5163 176.5 74.1413 176.187 74.8175 176.011C75.4993 175.83 76.1697 175.739 76.8288 175.739C77.2493 175.739 77.7322 175.79 78.2777 175.892C78.8288 175.989 79.3601 176.19 79.8714 176.497C80.3885 176.804 80.8175 177.267 81.1584 177.886C81.4993 178.506 81.6697 179.335 81.6697 180.375V189H79.6584V187.227H79.5561C79.4197 187.511 79.1925 187.815 78.8743 188.139C78.5561 188.463 78.1328 188.739 77.6044 188.966C77.076 189.193 76.4311 189.307 75.6697 189.307ZM75.9766 187.5C76.772 187.5 77.4425 187.344 77.9879 187.031C78.5391 186.719 78.9538 186.315 79.2322 185.821C79.5163 185.327 79.6584 184.807 79.6584 184.261V182.42C79.5732 182.523 79.3857 182.616 79.0959 182.702C78.8118 182.781 78.4822 182.852 78.1072 182.915C77.7379 182.972 77.3771 183.023 77.0249 183.068C76.6783 183.108 76.397 183.142 76.1811 183.17C75.6584 183.239 75.1697 183.349 74.7152 183.503C74.2663 183.651 73.9027 183.875 73.6243 184.176C73.3516 184.472 73.2152 184.875 73.2152 185.386C73.2152 186.085 73.4737 186.614 73.9908 186.972C74.5135 187.324 75.1754 187.5 75.9766 187.5ZM85.3409 189V175.909H87.2841V177.886H87.4205C87.6591 177.239 88.0909 176.713 88.7159 176.31C89.3409 175.906 90.0455 175.705 90.8295 175.705C90.9773 175.705 91.1619 175.707 91.3835 175.713C91.6051 175.719 91.7727 175.727 91.8864 175.739V177.784C91.8182 177.767 91.6619 177.741 91.4176 177.707C91.179 177.668 90.9261 177.648 90.6591 177.648C90.0227 177.648 89.4545 177.781 88.9545 178.048C88.4602 178.31 88.0682 178.673 87.7784 179.139C87.4943 179.599 87.3523 180.125 87.3523 180.716V189H85.3409ZM100.784 175.909V177.614H94V175.909H100.784ZM95.9773 172.773H97.9886V185.25C97.9886 185.818 98.071 186.244 98.2358 186.528C98.4063 186.807 98.6222 186.994 98.8835 187.091C99.1506 187.182 99.4318 187.227 99.7273 187.227C99.9489 187.227 100.131 187.216 100.273 187.193C100.415 187.165 100.528 187.142 100.614 187.125L101.023 188.932C100.886 188.983 100.696 189.034 100.452 189.085C100.207 189.142 99.8977 189.17 99.5227 189.17C98.9545 189.17 98.3977 189.048 97.8523 188.804C97.3125 188.56 96.8636 188.188 96.5057 187.688C96.1534 187.188 95.9773 186.557 95.9773 185.795V172.773ZM109.158 189.273C107.896 189.273 106.808 188.994 105.893 188.438C104.984 187.875 104.283 187.091 103.788 186.085C103.3 185.074 103.055 183.898 103.055 182.557C103.055 181.216 103.3 180.034 103.788 179.011C104.283 177.983 104.97 177.182 105.851 176.608C106.737 176.028 107.771 175.739 108.953 175.739C109.635 175.739 110.308 175.852 110.973 176.08C111.638 176.307 112.243 176.676 112.788 177.188C113.334 177.693 113.768 178.364 114.092 179.199C114.416 180.034 114.578 181.062 114.578 182.284V183.136H104.487V181.398H112.533C112.533 180.659 112.385 180 112.089 179.42C111.8 178.841 111.385 178.384 110.845 178.048C110.311 177.713 109.68 177.545 108.953 177.545C108.152 177.545 107.459 177.744 106.874 178.142C106.294 178.534 105.848 179.045 105.536 179.676C105.223 180.307 105.067 180.983 105.067 181.705V182.864C105.067 183.852 105.237 184.69 105.578 185.378C105.925 186.06 106.405 186.58 107.018 186.938C107.632 187.29 108.345 187.466 109.158 187.466C109.686 187.466 110.163 187.392 110.589 187.244C111.021 187.091 111.393 186.864 111.706 186.562C112.018 186.256 112.26 185.875 112.43 185.42L114.374 185.966C114.169 186.625 113.825 187.205 113.342 187.705C112.859 188.199 112.263 188.585 111.553 188.864C110.842 189.136 110.044 189.273 109.158 189.273ZM117.638 189V175.909H119.581V177.886H119.717C119.956 177.239 120.388 176.713 121.013 176.31C121.638 175.906 122.342 175.705 123.126 175.705C123.274 175.705 123.459 175.707 123.68 175.713C123.902 175.719 124.07 175.727 124.183 175.739V177.784C124.115 177.767 123.959 177.741 123.714 177.707C123.476 177.668 123.223 177.648 122.956 177.648C122.32 177.648 121.751 177.781 121.251 178.048C120.757 178.31 120.365 178.673 120.075 179.139C119.791 179.599 119.649 180.125 119.649 180.716V189H117.638ZM136.283 189L132.295 175.909H134.408L137.238 185.932H137.374L140.17 175.909H142.317L145.079 185.898H145.215L148.045 175.909H150.158L146.17 189H144.192L141.329 178.943H141.124L138.261 189H136.283ZM152.817 189V175.909H154.829V189H152.817ZM153.84 173.727C153.448 173.727 153.11 173.594 152.826 173.327C152.548 173.06 152.408 172.739 152.408 172.364C152.408 171.989 152.548 171.668 152.826 171.401C153.11 171.134 153.448 171 153.84 171C154.232 171 154.567 171.134 154.846 171.401C155.13 171.668 155.272 171.989 155.272 172.364C155.272 172.739 155.13 173.06 154.846 173.327C154.567 173.594 154.232 173.727 153.84 173.727ZM164.206 175.909V177.614H157.422V175.909H164.206ZM159.399 172.773H161.411V185.25C161.411 185.818 161.493 186.244 161.658 186.528C161.828 186.807 162.044 186.994 162.305 187.091C162.572 187.182 162.854 187.227 163.149 187.227C163.371 187.227 163.553 187.216 163.695 187.193C163.837 187.165 163.95 187.142 164.036 187.125L164.445 188.932C164.308 188.983 164.118 189.034 163.874 189.085C163.629 189.142 163.32 189.17 162.945 189.17C162.376 189.17 161.82 189.048 161.274 188.804C160.734 188.56 160.286 188.188 159.928 187.688C159.575 187.188 159.399 186.557 159.399 185.795V172.773ZM169.524 181.125V189H167.513V171.545H169.524V177.955H169.695C170.001 177.278 170.462 176.741 171.075 176.344C171.695 175.94 172.518 175.739 173.547 175.739C174.439 175.739 175.22 175.918 175.891 176.276C176.561 176.628 177.081 177.17 177.45 177.903C177.825 178.631 178.013 179.557 178.013 180.682V189H176.001V180.818C176.001 179.778 175.732 178.974 175.192 178.406C174.658 177.832 173.916 177.545 172.967 177.545C172.308 177.545 171.717 177.685 171.195 177.963C170.678 178.241 170.268 178.648 169.967 179.182C169.672 179.716 169.524 180.364 169.524 181.125ZM188.442 189V175.909H190.386V177.886H190.522C190.761 177.239 191.192 176.713 191.817 176.31C192.442 175.906 193.147 175.705 193.931 175.705C194.079 175.705 194.263 175.707 194.485 175.713C194.707 175.719 194.874 175.727 194.988 175.739V177.784C194.92 177.767 194.763 177.741 194.519 177.707C194.281 177.668 194.028 177.648 193.761 177.648C193.124 177.648 192.556 177.781 192.056 178.048C191.562 178.31 191.17 178.673 190.88 179.139C190.596 179.599 190.454 180.125 190.454 180.716V189H188.442ZM202.462 189.273C201.201 189.273 200.113 188.994 199.198 188.438C198.289 187.875 197.587 187.091 197.093 186.085C196.604 185.074 196.36 183.898 196.36 182.557C196.36 181.216 196.604 180.034 197.093 179.011C197.587 177.983 198.275 177.182 199.156 176.608C200.042 176.028 201.076 175.739 202.258 175.739C202.94 175.739 203.613 175.852 204.278 176.08C204.942 176.307 205.548 176.676 206.093 177.188C206.638 177.693 207.073 178.364 207.397 179.199C207.721 180.034 207.883 181.062 207.883 182.284V183.136H197.792V181.398H205.837C205.837 180.659 205.69 180 205.394 179.42C205.104 178.841 204.69 178.384 204.15 178.048C203.616 177.713 202.985 177.545 202.258 177.545C201.457 177.545 200.763 177.744 200.178 178.142C199.599 178.534 199.153 179.045 198.84 179.676C198.528 180.307 198.371 180.983 198.371 181.705V182.864C198.371 183.852 198.542 184.69 198.883 185.378C199.229 186.06 199.71 186.58 200.323 186.938C200.937 187.29 201.65 187.466 202.462 187.466C202.991 187.466 203.468 187.392 203.894 187.244C204.326 187.091 204.698 186.864 205.011 186.562C205.323 186.256 205.565 185.875 205.735 185.42L207.678 185.966C207.474 186.625 207.13 187.205 206.647 187.705C206.164 188.199 205.567 188.585 204.857 188.864C204.147 189.136 203.349 189.273 202.462 189.273ZM216.261 189.273C215.033 189.273 213.977 188.983 213.09 188.403C212.204 187.824 211.522 187.026 211.045 186.009C210.567 184.991 210.329 183.83 210.329 182.523C210.329 181.193 210.573 180.02 211.062 179.003C211.556 177.98 212.244 177.182 213.124 176.608C214.011 176.028 215.045 175.739 216.227 175.739C217.147 175.739 217.977 175.909 218.715 176.25C219.454 176.591 220.059 177.068 220.531 177.682C221.002 178.295 221.295 179.011 221.408 179.83H219.397C219.244 179.233 218.903 178.705 218.374 178.244C217.852 177.778 217.147 177.545 216.261 177.545C215.477 177.545 214.789 177.75 214.198 178.159C213.613 178.562 213.156 179.134 212.826 179.872C212.502 180.605 212.34 181.466 212.34 182.455C212.34 183.466 212.499 184.347 212.817 185.097C213.141 185.847 213.596 186.429 214.181 186.844C214.772 187.259 215.465 187.466 216.261 187.466C216.783 187.466 217.258 187.375 217.684 187.193C218.11 187.011 218.471 186.75 218.766 186.409C219.062 186.068 219.272 185.659 219.397 185.182H221.408C221.295 185.955 221.013 186.651 220.565 187.27C220.121 187.884 219.533 188.372 218.8 188.736C218.073 189.094 217.227 189.273 216.261 189.273ZM228.201 189.307C227.371 189.307 226.619 189.151 225.942 188.838C225.266 188.52 224.729 188.062 224.332 187.466C223.934 186.864 223.735 186.136 223.735 185.284C223.735 184.534 223.883 183.926 224.178 183.46C224.474 182.989 224.869 182.619 225.363 182.352C225.857 182.085 226.403 181.886 226.999 181.756C227.602 181.619 228.207 181.511 228.815 181.432C229.61 181.33 230.255 181.253 230.749 181.202C231.249 181.145 231.613 181.051 231.84 180.92C232.073 180.79 232.19 180.562 232.19 180.239V180.17C232.19 179.33 231.96 178.676 231.499 178.21C231.045 177.744 230.354 177.511 229.428 177.511C228.468 177.511 227.715 177.722 227.17 178.142C226.624 178.562 226.241 179.011 226.019 179.489L224.11 178.807C224.451 178.011 224.906 177.392 225.474 176.949C226.048 176.5 226.673 176.187 227.349 176.011C228.031 175.83 228.701 175.739 229.36 175.739C229.781 175.739 230.263 175.79 230.809 175.892C231.36 175.989 231.891 176.19 232.403 176.497C232.92 176.804 233.349 177.267 233.69 177.886C234.031 178.506 234.201 179.335 234.201 180.375V189H232.19V187.227H232.087C231.951 187.511 231.724 187.815 231.406 188.139C231.087 188.463 230.664 188.739 230.136 188.966C229.607 189.193 228.962 189.307 228.201 189.307ZM228.508 187.5C229.303 187.5 229.974 187.344 230.519 187.031C231.07 186.719 231.485 186.315 231.763 185.821C232.048 185.327 232.19 184.807 232.19 184.261V182.42C232.104 182.523 231.917 182.616 231.627 182.702C231.343 182.781 231.013 182.852 230.638 182.915C230.269 182.972 229.908 183.023 229.556 183.068C229.21 183.108 228.928 183.142 228.712 183.17C228.19 183.239 227.701 183.349 227.246 183.503C226.798 183.651 226.434 183.875 226.156 184.176C225.883 184.472 225.746 184.875 225.746 185.386C225.746 186.085 226.005 186.614 226.522 186.972C227.045 187.324 227.707 187.5 228.508 187.5ZM239.884 171.545V189H237.872V171.545H239.884ZM245.579 171.545V189H243.567V171.545H245.579ZM117.425 204.909V206.614H110.641V204.909H117.425ZM112.618 201.773H114.629V214.25C114.629 214.818 114.712 215.244 114.876 215.528C115.047 215.807 115.263 215.994 115.524 216.091C115.791 216.182 116.072 216.227 116.368 216.227C116.589 216.227 116.771 216.216 116.913 216.193C117.055 216.165 117.169 216.142 117.254 216.125L117.663 217.932C117.527 217.983 117.337 218.034 117.092 218.085C116.848 218.142 116.538 218.17 116.163 218.17C115.595 218.17 115.038 218.048 114.493 217.804C113.953 217.56 113.504 217.188 113.146 216.688C112.794 216.188 112.618 215.557 112.618 214.795V201.773ZM125.628 218.273C124.446 218.273 123.409 217.991 122.517 217.429C121.631 216.866 120.938 216.08 120.438 215.068C119.943 214.057 119.696 212.875 119.696 211.523C119.696 210.159 119.943 208.969 120.438 207.952C120.938 206.935 121.631 206.145 122.517 205.582C123.409 205.02 124.446 204.739 125.628 204.739C126.81 204.739 127.844 205.02 128.73 205.582C129.622 206.145 130.315 206.935 130.81 207.952C131.31 208.969 131.56 210.159 131.56 211.523C131.56 212.875 131.31 214.057 130.81 215.068C130.315 216.08 129.622 216.866 128.73 217.429C127.844 217.991 126.81 218.273 125.628 218.273ZM125.628 216.466C126.526 216.466 127.264 216.236 127.844 215.776C128.423 215.315 128.852 214.71 129.131 213.96C129.409 213.21 129.548 212.398 129.548 211.523C129.548 210.648 129.409 209.832 129.131 209.077C128.852 208.321 128.423 207.71 127.844 207.244C127.264 206.778 126.526 206.545 125.628 206.545C124.73 206.545 123.991 206.778 123.412 207.244C122.832 207.71 122.403 208.321 122.125 209.077C121.847 209.832 121.707 210.648 121.707 211.523C121.707 212.398 121.847 213.21 122.125 213.96C122.403 214.71 122.832 215.315 123.412 215.776C123.991 216.236 124.73 216.466 125.628 216.466ZM139.573 218.273C138.482 218.273 137.519 217.997 136.684 217.446C135.849 216.889 135.195 216.105 134.724 215.094C134.252 214.077 134.016 212.875 134.016 211.489C134.016 210.114 134.252 208.92 134.724 207.909C135.195 206.898 135.852 206.116 136.692 205.565C137.533 205.014 138.505 204.739 139.607 204.739C140.46 204.739 141.133 204.881 141.627 205.165C142.127 205.443 142.508 205.761 142.769 206.119C143.036 206.472 143.244 206.761 143.391 206.989H143.562V200.545H145.573V218H143.63V215.989H143.391C143.244 216.227 143.033 216.528 142.761 216.892C142.488 217.25 142.099 217.571 141.593 217.855C141.087 218.134 140.414 218.273 139.573 218.273ZM139.846 216.466C140.653 216.466 141.335 216.256 141.891 215.835C142.448 215.409 142.871 214.821 143.161 214.071C143.451 213.315 143.596 212.443 143.596 211.455C143.596 210.477 143.454 209.622 143.17 208.889C142.886 208.151 142.465 207.577 141.908 207.168C141.352 206.753 140.664 206.545 139.846 206.545C138.994 206.545 138.283 206.764 137.715 207.202C137.153 207.634 136.729 208.222 136.445 208.966C136.167 209.705 136.028 210.534 136.028 211.455C136.028 212.386 136.17 213.233 136.454 213.994C136.744 214.75 137.17 215.352 137.732 215.801C138.3 216.244 139.005 216.466 139.846 216.466ZM153.388 218.307C152.559 218.307 151.806 218.151 151.13 217.838C150.454 217.52 149.917 217.062 149.519 216.466C149.121 215.864 148.923 215.136 148.923 214.284C148.923 213.534 149.07 212.926 149.366 212.46C149.661 211.989 150.056 211.619 150.55 211.352C151.045 211.085 151.59 210.886 152.187 210.756C152.789 210.619 153.394 210.511 154.002 210.432C154.798 210.33 155.442 210.253 155.937 210.202C156.437 210.145 156.8 210.051 157.028 209.92C157.261 209.79 157.377 209.562 157.377 209.239V209.17C157.377 208.33 157.147 207.676 156.687 207.21C156.232 206.744 155.542 206.511 154.616 206.511C153.656 206.511 152.903 206.722 152.357 207.142C151.812 207.562 151.428 208.011 151.207 208.489L149.298 207.807C149.638 207.011 150.093 206.392 150.661 205.949C151.235 205.5 151.86 205.187 152.536 205.011C153.218 204.83 153.888 204.739 154.548 204.739C154.968 204.739 155.451 204.79 155.996 204.892C156.548 204.989 157.079 205.19 157.59 205.497C158.107 205.804 158.536 206.267 158.877 206.886C159.218 207.506 159.388 208.335 159.388 209.375V218H157.377V216.227H157.275C157.138 216.511 156.911 216.815 156.593 217.139C156.275 217.463 155.852 217.739 155.323 217.966C154.795 218.193 154.15 218.307 153.388 218.307ZM153.695 216.5C154.491 216.5 155.161 216.344 155.707 216.031C156.258 215.719 156.673 215.315 156.951 214.821C157.235 214.327 157.377 213.807 157.377 213.261V211.42C157.292 211.523 157.104 211.616 156.815 211.702C156.531 211.781 156.201 211.852 155.826 211.915C155.457 211.972 155.096 212.023 154.744 212.068C154.397 212.108 154.116 212.142 153.9 212.17C153.377 212.239 152.888 212.349 152.434 212.503C151.985 212.651 151.621 212.875 151.343 213.176C151.07 213.472 150.934 213.875 150.934 214.386C150.934 215.085 151.192 215.614 151.71 215.972C152.232 216.324 152.894 216.5 153.695 216.5ZM163.886 222.909C163.545 222.909 163.241 222.881 162.974 222.824C162.707 222.773 162.523 222.722 162.42 222.67L162.932 220.898C163.42 221.023 163.852 221.068 164.227 221.034C164.602 221 164.935 220.832 165.224 220.531C165.52 220.236 165.79 219.756 166.034 219.091L166.409 218.068L161.568 204.909H163.75L167.364 215.341H167.5L171.114 204.909H173.295L167.739 219.909C167.489 220.585 167.179 221.145 166.81 221.588C166.44 222.037 166.011 222.369 165.523 222.585C165.04 222.801 164.494 222.909 163.886 222.909Z" fill="black"/>
</svg>
